# xmcd CD database file
#
# Track frame offsets:
#	153
#	16800
#	36250
#	48558
#	65030
#	80585
#	93118
#	107208
#	123080
#	140248
#	155015
#	170315
#	186450
#	203850
#	217658
#	234748
#	249673
#	265270
#	275353
#	292470
#	302448
#	303260
#	304328
#	305388
#	306493
#	307708
#	308565
#	309390
#	310755
#	311765
#	312595
#	313318
#	313998
#	314633
#	315438
#	316200
#	317168
#	318030
#	318790
#	319460
#	320218
#
# Disc length: 4275 seconds
#
# Revision: 0
# Processed by: cddbd v1.5.2PL0 Copyright (c) Steve Scherf et al.
# Submitted via: CDex 1.70beta2
#
DISCID=5f10b129
DTITLE=k - Jones Country Recurrent CHC-1160
DYEAR=0000
DGENRE=Country
TTITLE0=Mark Chesnutt/She Dreams
TTITLE1=Reba McEntire/She Thinks His Name Was John
TTITLE2=Patty Loveless/I Try To Think About Elvis [radio edit]
TTITLE3=Neal McCoy/City Put The Country Back In Me
TTITLE4=Collin Raye/Man Of My Word
TTITLE5=Ken Mellons/Jukebox Junkie
TTITLE6=Tracy Byrd/Watermelon Crawl
TTITLE7=Blackhawk/I Sure Can Smell The Rain
TTITLE8=Little Texas/Kick A Little [album version]
TTITLE9=Brooks and Dunn/She's Not The Cheatin' Kind
TTITLE10=Sammy Kershaw/Third Rate Romance
TTITLE11=Tracy Lawrence/I See It Now
TTITLE12=Alan Jackson/Livin' On Love
TTITLE13=David Ball/When The Thought Of You Catches Up With Me
TTITLE14=Mary-Chapin Carpenter/Shut Up And Kiss Me
TTITLE15=Alabama/We Can't Love Like This Anymore
TTITLE16=Clint Black/Untanglin' My Mind
TTITLE17=Clay Walker/If I Could Make A Living
TTITLE18=John Michael Montgomery/If You've Got Love
TTITLE19=George Strait/Big One
TTITLE20=Production/Track 21
TTITLE21=Production/Track 22
TTITLE22=Production/Track 23
TTITLE23=Production/Track 24
TTITLE24=Production/Track 25
TTITLE25=Production/Track 26
TTITLE26=Production/Track 27
TTITLE27=Production/Track 28
TTITLE28=Production/Track 29
TTITLE29=Production/Track 30
TTITLE30=Production/Track 31
TTITLE31=Production/Track 32
TTITLE32=Production/Track 33
TTITLE33=Production/Track 34
TTITLE34=Production/Track 35
TTITLE35=Production/Track 36
TTITLE36=Production/Track 37
TTITLE37=Production/Track 38
TTITLE38=Production/Track 39
TTITLE39=Production/Track 40
TTITLE40=Production/Track 41
EXTD=YEAR: 0000
EXTT0=
EXTT1=
EXTT2=
EXTT3=
EXTT4=
EXTT5=
EXTT6=
EXTT7=
EXTT8=
EXTT9=
EXTT10=
EXTT11=
EXTT12=
EXTT13=
EXTT14=
EXTT15=
EXTT16=
EXTT17=
EXTT18=
EXTT19=
EXTT20=
EXTT21=
EXTT22=
EXTT23=
EXTT24=
EXTT25=
EXTT26=
EXTT27=
EXTT28=
EXTT29=
EXTT30=
EXTT31=
EXTT32=
EXTT33=
EXTT34=
EXTT35=
EXTT36=
EXTT37=
EXTT38=
EXTT39=
EXTT40=
PLAYORDER=
